<mxfile host="app.diagrams.net" modified="2020-09-07T07:53:19.682Z" agent="5.0 (Windows NT 10.0; Win64; x64) AppleWebKit/537.36 (KHTML, like Gecko) Chrome/85.0.4183.83 Safari/537.36 Edg/85.0.564.44" etag="KH-cQMM6IM4TM2Cfv2Yd" version="13.6.6" type="github">
  <diagram id="2dntFaKOUKjyEubpullR" name="Page-1">
    <mxGraphModel dx="2249" dy="762" grid="1" gridSize="10" guides="1" tooltips="1" connect="1" arrows="1" fold="1" page="1" pageScale="1" pageWidth="827" pageHeight="1169" math="0" shadow="0">
      <root>
        <mxCell id="0" />
        <mxCell id="1" parent="0" />
        <mxCell id="eEDgtMaM_HhACgWwwomH-14" value="" style="rounded=1;whiteSpace=wrap;html=1;dashed=1;" vertex="1" parent="1">
          <mxGeometry x="100" y="50" width="670" height="500" as="geometry" />
        </mxCell>
        <mxCell id="eEDgtMaM_HhACgWwwomH-5" value="orborus" style="shape=umlLifeline;perimeter=lifelinePerimeter;whiteSpace=wrap;html=1;container=1;collapsible=0;recursiveResize=0;outlineConnect=0;" vertex="1" parent="1">
          <mxGeometry x="110" y="160" width="100" height="300" as="geometry" />
        </mxCell>
        <mxCell id="eEDgtMaM_HhACgWwwomH-6" value="walkoff" style="shape=umlLifeline;perimeter=lifelinePerimeter;whiteSpace=wrap;html=1;container=1;collapsible=0;recursiveResize=0;outlineConnect=0;" vertex="1" parent="1">
          <mxGeometry x="290" y="160" width="100" height="300" as="geometry" />
        </mxCell>
        <mxCell id="eEDgtMaM_HhACgWwwomH-7" value="worker" style="shape=umlLifeline;perimeter=lifelinePerimeter;whiteSpace=wrap;html=1;container=1;collapsible=0;recursiveResize=0;outlineConnect=0;" vertex="1" parent="1">
          <mxGeometry x="460" y="160" width="100" height="300" as="geometry" />
        </mxCell>
        <mxCell id="eEDgtMaM_HhACgWwwomH-8" value="app_gen" style="shape=umlLifeline;perimeter=lifelinePerimeter;whiteSpace=wrap;html=1;container=1;collapsible=0;recursiveResize=0;outlineConnect=0;" vertex="1" parent="1">
          <mxGeometry x="640" y="160" width="100" height="300" as="geometry" />
        </mxCell>
        <mxCell id="eEDgtMaM_HhACgWwwomH-9" value="shuffle工作流交互流程" style="text;html=1;strokeColor=none;fillColor=none;align=center;verticalAlign=middle;whiteSpace=wrap;rounded=0;" vertex="1" parent="1">
          <mxGeometry x="-90" y="30" width="170" height="30" as="geometry" />
        </mxCell>
        <mxCell id="eEDgtMaM_HhACgWwwomH-10" value="frontend" style="shape=umlLifeline;perimeter=lifelinePerimeter;whiteSpace=wrap;html=1;container=1;collapsible=0;recursiveResize=0;outlineConnect=0;" vertex="1" parent="1">
          <mxGeometry x="-60" y="160" width="100" height="300" as="geometry" />
        </mxCell>
        <mxCell id="eEDgtMaM_HhACgWwwomH-12" value="database" style="shape=umlLifeline;perimeter=lifelinePerimeter;whiteSpace=wrap;html=1;container=1;collapsible=0;recursiveResize=0;outlineConnect=0;" vertex="1" parent="1">
          <mxGeometry x="820" y="160" width="100" height="300" as="geometry" />
        </mxCell>
        <mxCell id="eEDgtMaM_HhACgWwwomH-13" value="rabbitMQ" style="shape=umlLifeline;perimeter=lifelinePerimeter;whiteSpace=wrap;html=1;container=1;collapsible=0;recursiveResize=0;outlineConnect=0;" vertex="1" parent="1">
          <mxGeometry x="1000" y="160" width="100" height="300" as="geometry" />
        </mxCell>
        <mxCell id="eEDgtMaM_HhACgWwwomH-15" value="backend" style="text;html=1;strokeColor=none;fillColor=none;align=center;verticalAlign=middle;whiteSpace=wrap;rounded=0;dashed=1;" vertex="1" parent="1">
          <mxGeometry x="394" y="70" width="40" height="20" as="geometry" />
        </mxCell>
      </root>
    </mxGraphModel>
  </diagram>
</mxfile>
